<svg width="19" height="19" viewBox="0 0 19 19" fill="none" xmlns="http://www.w3.org/2000/svg">
<path d="M10.0937 16.0312V4.18623L14.4139 8.72189C14.6401 8.95939 15.0159 8.96859 15.2534 8.74237C15.4906 8.51645 15.5001 8.14061 15.2739 7.90281L10.3398 2.72294C10.1154 2.4988 9.81734 2.375 9.49998 2.375C9.18291 2.375 8.88456 2.4988 8.65032 2.73333L3.72635 7.90311C3.61681 8.018 3.56248 8.16525 3.56248 8.3125C3.56248 8.46925 3.62423 8.626 3.74684 8.74267C3.98434 8.96889 4.35988 8.95969 4.5861 8.72219L8.90623 4.16753V16.0312C8.90623 16.359 9.17223 16.625 9.49998 16.625C9.82773 16.625 10.0937 16.359 10.0937 16.0312Z" fill="#4B465C"/>
</svg>
