<svg width="22" height="24" viewBox="0 0 22 24" fill="none" xmlns="http://www.w3.org/2000/svg">
<path d="M8.70837 4.14286C8.70837 2.91337 9.73439 1.91667 11 1.91667C12.2657 1.91667 13.2917 2.91337 13.2917 4.14286C15.9732 5.37456 17.736 7.94324 17.875 10.8214V14.1607C18.0499 15.5641 18.9004 16.8034 20.1667 17.5H1.83337C3.09965 16.8034 3.95017 15.5641 4.12504 14.1607V10.8214C4.26411 7.94324 6.02693 5.37456 8.70837 4.14286" stroke="#4B465C" stroke-width="2" stroke-linecap="round" stroke-linejoin="round"/>
<path d="M8.70837 4.14286C8.70837 2.91337 9.73439 1.91667 11 1.91667C12.2657 1.91667 13.2917 2.91337 13.2917 4.14286C15.9732 5.37456 17.736 7.94324 17.875 10.8214V14.1607C18.0499 15.5641 18.9004 16.8034 20.1667 17.5H1.83337C3.09965 16.8034 3.95017 15.5641 4.12504 14.1607V10.8214C4.26411 7.94324 6.02693 5.37456 8.70837 4.14286" stroke="white" stroke-opacity="0.2" stroke-width="2" stroke-linecap="round" stroke-linejoin="round"/>
<path d="M7.33337 17.5V18.6458C7.33337 20.5443 8.975 22.0833 11 22.0833C13.0251 22.0833 14.6667 20.5443 14.6667 18.6458V17.5" stroke="#4B465C" stroke-width="2" stroke-linecap="round" stroke-linejoin="round"/>
<path d="M7.33337 17.5V18.6458C7.33337 20.5443 8.975 22.0833 11 22.0833C13.0251 22.0833 14.6667 20.5443 14.6667 18.6458V17.5" stroke="white" stroke-opacity="0.2" stroke-width="2" stroke-linecap="round" stroke-linejoin="round"/>
</svg>
