<svg width="22" height="22" viewBox="0 0 22 22" fill="none" xmlns="http://www.w3.org/2000/svg">
<path d="M15.9574 1.91699H6.04654C3.76951 1.91699 1.91699 3.76951 1.91699 6.04654V12.6538C1.91699 14.6476 3.33838 16.3159 5.22063 16.6999V19.2611C5.22063 19.5658 5.38829 19.8458 5.65671 19.9895C5.77894 20.0548 5.91274 20.087 6.04654 20.087C6.20676 20.087 6.36616 20.0399 6.50492 19.9482L11.2522 16.7834H15.9574C18.2345 16.7834 20.087 14.9308 20.087 12.6538V6.04654C20.087 3.76951 18.2345 1.91699 15.9574 1.91699ZM10.5436 15.2703L6.87245 17.7175V15.9574C6.87245 15.5015 6.50244 15.1315 6.04654 15.1315C4.68048 15.1315 3.56881 14.0199 3.56881 12.6538V6.04654C3.56881 4.68048 4.68048 3.56881 6.04654 3.56881H15.9574C17.3235 3.56881 18.4352 4.68048 18.4352 6.04654V12.6538C18.4352 14.0199 17.3235 15.1315 15.9574 15.1315H11.002C10.9442 15.1307 10.8616 15.1365 10.7674 15.1646C10.6683 15.1935 10.5932 15.2364 10.5436 15.2703Z" fill="#4B465C"/>
<path d="M15.9574 1.91699H6.04654C3.76951 1.91699 1.91699 3.76951 1.91699 6.04654V12.6538C1.91699 14.6476 3.33838 16.3159 5.22063 16.6999V19.2611C5.22063 19.5658 5.38829 19.8458 5.65671 19.9895C5.77894 20.0548 5.91274 20.087 6.04654 20.087C6.20676 20.087 6.36616 20.0399 6.50492 19.9482L11.2522 16.7834H15.9574C18.2345 16.7834 20.087 14.9308 20.087 12.6538V6.04654C20.087 3.76951 18.2345 1.91699 15.9574 1.91699ZM10.5436 15.2703L6.87245 17.7175V15.9574C6.87245 15.5015 6.50244 15.1315 6.04654 15.1315C4.68048 15.1315 3.56881 14.0199 3.56881 12.6538V6.04654C3.56881 4.68048 4.68048 3.56881 6.04654 3.56881H15.9574C17.3235 3.56881 18.4352 4.68048 18.4352 6.04654V12.6538C18.4352 14.0199 17.3235 15.1315 15.9574 15.1315H11.002C10.9442 15.1307 10.8616 15.1365 10.7674 15.1646C10.6683 15.1935 10.5932 15.2364 10.5436 15.2703Z" fill="white" fill-opacity="0.2"/>
<path d="M15.9575 6.87253H6.04661C5.59071 6.87253 5.2207 7.24254 5.2207 7.69844C5.2207 8.15434 5.59071 8.52435 6.04661 8.52435H15.9575C16.4134 8.52435 16.7834 8.15434 16.7834 7.69844C16.7834 7.24254 16.4134 6.87253 15.9575 6.87253Z" fill="#4B465C"/>
<path d="M15.9575 6.87253H6.04661C5.59071 6.87253 5.2207 7.24254 5.2207 7.69844C5.2207 8.15434 5.59071 8.52435 6.04661 8.52435H15.9575C16.4134 8.52435 16.7834 8.15434 16.7834 7.69844C16.7834 7.24254 16.4134 6.87253 15.9575 6.87253Z" fill="white" fill-opacity="0.2"/>
<path d="M14.3062 10.1758H7.69896C7.24305 10.1758 6.87305 10.5458 6.87305 11.0017C6.87305 11.4576 7.24305 11.8276 7.69896 11.8276H14.3062C14.7621 11.8276 15.1321 11.4576 15.1321 11.0017C15.1321 10.5458 14.7621 10.1758 14.3062 10.1758Z" fill="#4B465C"/>
<path d="M14.3062 10.1758H7.69896C7.24305 10.1758 6.87305 10.5458 6.87305 11.0017C6.87305 11.4576 7.24305 11.8276 7.69896 11.8276H14.3062C14.7621 11.8276 15.1321 11.4576 15.1321 11.0017C15.1321 10.5458 14.7621 10.1758 14.3062 10.1758Z" fill="white" fill-opacity="0.2"/>
</svg>
