<svg width="22" height="22" viewBox="0 0 22 22" fill="none" xmlns="http://www.w3.org/2000/svg">
<path d="M12.8333 2.75V6.41667C12.8333 6.92293 13.2437 7.33333 13.75 7.33333H17.4167" stroke="#4B465C" stroke-width="1.5" stroke-linecap="round" stroke-linejoin="round"/>
<path d="M12.8333 2.75V6.41667C12.8333 6.92293 13.2437 7.33333 13.75 7.33333H17.4167" stroke="white" stroke-opacity="0.2" stroke-width="1.5" stroke-linecap="round" stroke-linejoin="round"/>
<path fill-rule="evenodd" clip-rule="evenodd" d="M15.5833 19.25H6.41667C5.40414 19.25 4.58333 18.4292 4.58333 17.4167V4.58333C4.58333 3.57081 5.40414 2.75 6.41667 2.75H12.8333L17.4167 7.33333V17.4167C17.4167 18.4292 16.5959 19.25 15.5833 19.25Z" stroke="#4B465C" stroke-width="1.5" stroke-linecap="round" stroke-linejoin="round"/>
<path fill-rule="evenodd" clip-rule="evenodd" d="M15.5833 19.25H6.41667C5.40414 19.25 4.58333 18.4292 4.58333 17.4167V4.58333C4.58333 3.57081 5.40414 2.75 6.41667 2.75H12.8333L17.4167 7.33333V17.4167C17.4167 18.4292 16.5959 19.25 15.5833 19.25Z" stroke="white" stroke-opacity="0.2" stroke-width="1.5" stroke-linecap="round" stroke-linejoin="round"/>
<path d="M12.8333 10.0833H10.5417C9.78228 10.0833 9.16667 10.699 9.16667 11.4583C9.16667 12.2177 9.78228 12.8333 10.5417 12.8333H11.4583C12.2177 12.8333 12.8333 13.449 12.8333 14.2083C12.8333 14.9677 12.2177 15.5833 11.4583 15.5833H9.16667" stroke="#4B465C" stroke-width="1.5" stroke-linecap="round" stroke-linejoin="round"/>
<path d="M12.8333 10.0833H10.5417C9.78228 10.0833 9.16667 10.699 9.16667 11.4583C9.16667 12.2177 9.78228 12.8333 10.5417 12.8333H11.4583C12.2177 12.8333 12.8333 13.449 12.8333 14.2083C12.8333 14.9677 12.2177 15.5833 11.4583 15.5833H9.16667" stroke="white" stroke-opacity="0.2" stroke-width="1.5" stroke-linecap="round" stroke-linejoin="round"/>
<path d="M11.75 15.5833C11.75 15.1691 11.4142 14.8333 11 14.8333C10.5858 14.8333 10.25 15.1691 10.25 15.5833H11.75ZM10.25 16.5C10.25 16.9142 10.5858 17.25 11 17.25C11.4142 17.25 11.75 16.9142 11.75 16.5H10.25ZM11.75 9.16666C11.75 8.75244 11.4142 8.41666 11 8.41666C10.5858 8.41666 10.25 8.75244 10.25 9.16666H11.75ZM10.25 10.0833C10.25 10.4975 10.5858 10.8333 11 10.8333C11.4142 10.8333 11.75 10.4975 11.75 10.0833H10.25ZM11 15.5833H10.25V16.5H11H11.75V15.5833H11ZM11 9.16666H10.25V10.0833H11H11.75V9.16666H11Z" fill="#4B465C"/>
<path d="M11.75 15.5833C11.75 15.1691 11.4142 14.8333 11 14.8333C10.5858 14.8333 10.25 15.1691 10.25 15.5833H11.75ZM10.25 16.5C10.25 16.9142 10.5858 17.25 11 17.25C11.4142 17.25 11.75 16.9142 11.75 16.5H10.25ZM11.75 9.16666C11.75 8.75244 11.4142 8.41666 11 8.41666C10.5858 8.41666 10.25 8.75244 10.25 9.16666H11.75ZM10.25 10.0833C10.25 10.4975 10.5858 10.8333 11 10.8333C11.4142 10.8333 11.75 10.4975 11.75 10.0833H10.25ZM11 15.5833H10.25V16.5H11H11.75V15.5833H11ZM11 9.16666H10.25V10.0833H11H11.75V9.16666H11Z" fill="white" fill-opacity="0.2"/>
</svg>
