<svg width="21" height="16" viewBox="0 0 21 16" fill="none" xmlns="http://www.w3.org/2000/svg">
<path d="M20.3848 11.3149H20.1188C19.9721 9.0064 18.9903 6.85604 17.3156 5.20605C16.0394 3.94869 14.4681 3.08799 12.7559 2.68534V2.22256C12.7559 0.997042 11.7439 0 10.5 0C9.25612 0 8.24414 0.997042 8.24414 2.22256V2.68534C6.53186 3.08803 4.96063 3.94869 3.68443 5.20605C2.00972 6.85604 1.02789 9.0064 0.881221 11.3149H0.615234C0.275461 11.3149 0 11.5863 0 11.921C0 14.0378 1.74796 15.76 3.89648 15.76H17.0215C18.0634 15.76 19.0538 15.3633 19.8103 14.6428C20.5775 13.9122 21 12.9455 21 11.921C21 11.5863 20.7245 11.3149 20.3848 11.3149ZM9.47461 2.22256C9.47461 1.66551 9.9346 1.21231 10.5 1.21231C11.0654 1.21231 11.5254 1.66551 11.5254 2.22256V2.47796C11.187 2.44292 10.845 2.42462 10.5 2.42462C10.155 2.42462 9.81299 2.44292 9.47461 2.47796V2.22256ZM10.5 3.63692C14.9294 3.63692 18.5695 7.02892 18.8856 11.3149H2.1144C2.43054 7.02892 6.07064 3.63692 10.5 3.63692ZM17.0215 14.5477H3.89648C2.63808 14.5477 1.58054 13.6843 1.30212 12.5272H19.6923C19.3973 13.6703 18.2937 14.5477 17.0215 14.5477Z" fill="#4B465C"/>
</svg>
