<svg width="20" height="20" viewBox="0 0 20 20" fill="none" xmlns="http://www.w3.org/2000/svg">
<path fill-rule="evenodd" clip-rule="evenodd" d="M10.4911 16.8512C10.1899 16.6843 9.824 16.6841 9.52262 16.8508L5.62874 19.0035C4.89816 19.4074 4.02354 18.7913 4.15794 17.9674L4.92568 13.2611C4.97682 12.9476 4.87599 12.6285 4.65403 12.4013L1.36173 9.03138C0.792605 8.44884 1.12126 7.46667 1.92637 7.34398L6.3819 6.66496C6.71172 6.6147 6.99475 6.40326 7.1365 6.10124L9.09474 1.92882C9.45465 1.16198 10.5454 1.16198 10.9053 1.92882L12.8635 6.10124C13.0053 6.40326 13.2883 6.6147 13.6181 6.66496L18.0736 7.34398C18.8787 7.46667 19.2074 8.44884 18.6383 9.03138L15.346 12.4013C15.124 12.6285 15.0232 12.9476 15.0743 13.2611L15.8417 17.9649C15.9761 18.7892 15.1006 19.4054 14.37 19.0006L10.4911 16.8512Z" stroke="#4B465C" stroke-width="1.7" stroke-linecap="round" stroke-linejoin="round"/>
<path fill-rule="evenodd" clip-rule="evenodd" d="M10.4911 16.8512C10.1899 16.6843 9.824 16.6841 9.52262 16.8508L5.62874 19.0035C4.89816 19.4074 4.02354 18.7913 4.15794 17.9674L4.92568 13.2611C4.97682 12.9476 4.87599 12.6285 4.65403 12.4013L1.36173 9.03138C0.792605 8.44884 1.12126 7.46667 1.92637 7.34398L6.3819 6.66496C6.71172 6.6147 6.99475 6.40326 7.1365 6.10124L9.09474 1.92882C9.45465 1.16198 10.5454 1.16198 10.9053 1.92882L12.8635 6.10124C13.0053 6.40326 13.2883 6.6147 13.6181 6.66496L18.0736 7.34398C18.8787 7.46667 19.2074 8.44884 18.6383 9.03138L15.346 12.4013C15.124 12.6285 15.0232 12.9476 15.0743 13.2611L15.8417 17.9649C15.9761 18.7892 15.1006 19.4054 14.37 19.0006L10.4911 16.8512Z" stroke="white" stroke-opacity="0.2" stroke-width="1.7" stroke-linecap="round" stroke-linejoin="round"/>
</svg>
